<svg width="274.25" height="136.25" viewBox="32.375 106.25 274.25 136.25" fill="none" xmlns="http://www.w3.org/2000/svg">
<path d="M42.375 232.5C42.375 201.669 55.7685 172.1 79.6091 150.299C103.45 128.498 135.784 116.25 169.5 116.25C203.216 116.25 235.55 128.498 259.391 150.299C283.232 172.1 296.625 201.669 296.625 232.5" stroke="black" stroke-width="20" stroke-linecap="round"/>
<path d="M74.1562 232.5C74.1563 209.376 84.2014 187.2 102.082 170.849C119.962 154.498 144.213 145.313 169.5 145.312C194.787 145.313 219.038 154.498 236.918 170.849C254.799 187.2 264.844 209.376 264.844 232.5" stroke="black" stroke-width="20" stroke-linecap="round"/>
<path d="M105.938 232.5C105.938 217.084 112.634 202.3 124.555 191.399C136.475 180.499 152.642 174.375 169.5 174.375C186.358 174.375 202.525 180.499 214.445 191.399C226.366 202.3 233.062 217.084 233.062 232.5" stroke="black" stroke-width="20" stroke-linecap="round"/>
</svg>
